<?xml version="1.0" encoding="UTF-8" standalone="no"?>
<!-- Created with Inkscape (http://www.inkscape.org/) -->

<svg
   xmlns:dc="http://purl.org/dc/elements/1.1/"
   xmlns:cc="http://creativecommons.org/ns#"
   xmlns:rdf="http://www.w3.org/1999/02/22-rdf-syntax-ns#"
   xmlns:svg="http://www.w3.org/2000/svg"
   xmlns="http://www.w3.org/2000/svg"
   xmlns:sodipodi="http://sodipodi.sourceforge.net/DTD/sodipodi-0.dtd"
   xmlns:inkscape="http://www.inkscape.org/namespaces/inkscape"
   width="270.33286mm"
   height="60.000362mm"
   viewBox="0 0 270.33286 60.000362"
   version="1.1"
   id="svg8"
   inkscape:version="0.92.4 (unknown)"
   sodipodi:docname="logo.svg">
  <defs
     id="defs2" />
  <sodipodi:namedview
     id="base"
     pagecolor="#ffffff"
     bordercolor="#666666"
     borderopacity="1.0"
     inkscape:pageopacity="0.0"
     inkscape:pageshadow="2"
     inkscape:zoom="0.49497475"
     inkscape:cx="464.54542"
     inkscape:cy="66.30307"
     inkscape:document-units="mm"
     inkscape:current-layer="layer1"
     showgrid="false"
     fit-margin-top="0"
     fit-margin-left="0"
     fit-margin-right="0"
     fit-margin-bottom="0"
     inkscape:window-width="1299"
     inkscape:window-height="713"
     inkscape:window-x="67"
     inkscape:window-y="27"
     inkscape:window-maximized="1" />
  <metadata
     id="metadata5">
    <rdf:RDF>
      <cc:Work
         rdf:about="">
        <dc:format>image/svg+xml</dc:format>
        <dc:type
           rdf:resource="http://purl.org/dc/dcmitype/StillImage" />
        <dc:title></dc:title>
      </cc:Work>
    </rdf:RDF>
  </metadata>
  <g
     inkscape:label="Layer 1"
     inkscape:groupmode="layer"
     id="layer1"
     transform="translate(-107.46636,-48.069036)">
    <path
       style="fill:#ffffff;fill-opacity:1;stroke:#ffffff;stroke-width:3.03026056;stroke-miterlimit:4;stroke-dasharray:none;stroke-opacity:1"
       d="m 348.04018,49.584581 a 14.625904,14.933766 0 0 0 -9.60456,3.696313 14.625904,14.933766 0 0 0 -8.42937,-2.741644 14.625904,14.933766 0 0 0 -12.20961,6.732268 19.269481,19.675086 0 0 0 -17.15628,19.532753 19.269481,19.675086 0 0 0 2.11741,8.961237 9.5838506,9.7855821 0 0 0 -3.17431,7.259714 9.5838506,9.7855821 0 0 0 0.10744,1.392969 6.0363949,6.4362474 0 0 0 -3.2394,5.699539 6.0363949,6.4362474 0 0 0 6.03662,6.43638 6.0363949,6.4362474 0 0 0 5.51231,-3.82449 9.5838506,9.7855821 0 0 0 1.16693,0.0812 9.5838506,9.7855821 0 0 0 8.98674,-6.421066 19.269481,19.675086 0 0 0 1.75582,0.08961 19.269481,19.675086 0 0 0 5.08561,-0.70097 19.269481,19.675086 0 0 0 14.09458,6.282886 19.269481,19.675086 0 0 0 15.84625,-8.48918 16.088081,15.608344 0 0 0 5.25971,0.876085 16.088081,15.608344 0 0 0 16.088,-15.608064 16.088081,15.608344 0 0 0 -13.65858,-15.40974 14.625904,14.933766 0 0 0 -14.58531,-13.845874 z"
       id="path10"
       inkscape:connector-curvature="0" />
    <circle
       style="fill:none;stroke:#000000;stroke-width:0.1048933;stroke-opacity:1"
       id="path1006-6"
       cx="92.608894"
       cy="124.47752"
       r="0" />
    <g
       aria-label="Imagine"
       transform="matrix(1.1764957,0,0,1.3786848,-348.6942,-419.99029)"
       style="font-style:normal;font-weight:normal;font-size:40px;line-height:1.25;font-family:sans-serif;letter-spacing:0px;word-spacing:0px;fill:#ffffff;fill-opacity:1;stroke:none;stroke-opacity:1"
       id="flowRoot1055">
      <path
         d="m 408.1082,359.11698 q 2.04,1.92 3.24,4.48 -1.28,-1.84 -3.68,-3.12 -1.52,3.8 -4.8,6 -3.24,2.16 -7.52,2.16 -2.56,0 -4.44,-0.8 -1.88,-0.84 -2.56,-2.24 -0.12,-0.44 -0.12,-0.96 0,-2.72 1.36,-4.76 1.36,-2.08 3.76,-3.16 2.4,-1.12 5.4,-1.12 3.56,0 6.44,1.48 l 2,-8.08 q 0.44,-1.84 1.08,-3.36 l -0.12,-0.08 q -3.08,2 -5.28,2.92 -2.2,0.88 -4.4,0.88 -2.2,0 -3.32,-0.8 -1.08,-0.84 -1.08,-2.32 0,-1.2 0.56,-2.32 0.6,-1.16 1.56,-1.84 1,-0.72 2.16,-0.72 1.04,0 1.6,0.56 0.56,0.56 0.56,1.44 0,0.36 -0.04,0.56 -0.44,-0.8 -1.24,-0.8 -0.76,0 -1.32,0.56 -0.52,0.52 -0.52,1.4 0,0.72 0.6,1.12 0.64,0.36 1.88,0.36 2.48,0 5.28,-1.6 2.84,-1.64 6.44,-4.96 h 1.28 l -4.64,18.68 z m -12.28,6.64 q 3.2,0 5.52,-1.72 2.36,-1.76 3.28,-4.8 -2.6,-0.76 -5.24,-0.76 -3.64,0 -5.6,1.52 -1.96,1.48 -1.96,4.6 0.36,0.52 1.48,0.84 1.12,0.32 2.52,0.32 z"
         style="font-style:normal;font-variant:normal;font-weight:normal;font-stretch:normal;font-family:Srisakdi;-inkscape-font-specification:Srisakdi;fill:#ffffff;fill-opacity:1;stroke:none;stroke-opacity:1"
         id="path4766"
         inkscape:connector-curvature="0" />
      <path
         d="m 413.90883,368.47698 q -1.36,0 -1.36,-1 0,-0.12 0.08,-0.52 l 3.56,-14.16 q 0.04,-0.12 0.04,-0.32 0,-0.36 -0.24,-0.56 -0.2,-0.2 -0.56,-0.2 -1.4,0 -3.64,1.48 1.64,-1.84 3.28,-2.92 1.64,-1.08 2.92,-1.08 0.84,0 1.36,0.48 0.52,0.48 0.52,1.32 0,0.32 -0.12,0.76 l -0.68,2.72 q 2.12,-2.48 4.12,-3.96 2,-1.48 3.28,-1.48 0.68,0 1.48,0.48 0.84,0.44 1.4,1.2 0.6,0.76 0.6,1.56 0,0.2 -0.08,0.52 l -0.44,1.68 q 2.12,-2.48 4.12,-3.96 2,-1.48 3.28,-1.48 0.68,0 1.52,0.48 0.84,0.44 1.4,1.2 0.56,0.76 0.56,1.56 0,0.2 -0.08,0.52 l -3.04,12.08 q -0.08,0.16 -0.08,0.4 0,0.68 0.88,0.68 1.4,0 3.64,-1.48 -1.64,1.84 -3.28,2.92 -1.64,1.08 -2.92,1.08 -0.84,0 -1.36,-0.48 -0.52,-0.48 -0.52,-1.32 0,-0.36 0.12,-0.76 l 3.36,-13.44 q -2.04,0.28 -4.36,1.84 -2.32,1.56 -4.2,4 l -1.64,6.56 q -0.08,0.24 -0.08,0.44 0,0.64 0.88,0.64 1.4,0 3.64,-1.48 -1.64,1.84 -3.28,2.92 -1.64,1.08 -2.92,1.08 -0.84,0 -1.36,-0.48 -0.52,-0.48 -0.52,-1.32 0,-0.36 0.12,-0.76 l 3.36,-13.44 q -2.04,0.28 -4.36,1.84 -2.32,1.56 -4.2,4 l -2.16,8.64 q -0.36,1.52 -2.04,1.52 z"
         style="font-style:normal;font-variant:normal;font-weight:normal;font-stretch:normal;font-family:Srisakdi;-inkscape-font-specification:Srisakdi;fill:#ffffff;fill-opacity:1;stroke:none;stroke-opacity:1"
         id="path4768"
         inkscape:connector-curvature="0" />
      <path
         d="m 460.3382,365.95698 q 1.4,0 3.64,-1.48 -1.64,1.84 -3.28,2.92 -1.64,1.08 -2.92,1.08 -0.88,0 -1.36,-0.48 -0.48,-0.48 -0.48,-1.32 0,-0.48 0.08,-0.76 l 0.4,-1.56 q -2.92,4.28 -6.28,4.28 -1.68,0 -3,-1.04 -1.32,-1.08 -2.48,-3.08 -0.4,-2 -0.4,-3.64 0,-3.56 1.36,-6.24 1.36,-2.68 3.84,-4.12 2.48,-1.48 5.76,-1.48 2.96,0 5.24,1.2 2.28,1.16 3.48,3.2 -1.6,-0.84 -3.44,-1.28 -1.8,-0.48 -3.64,-0.48 -4.36,0 -6.8,2.68 -2.44,2.68 -2.44,7.36 0,1.48 0.24,3.12 0.64,0.6 1.16,0.88 0.52,0.28 1.28,0.28 2.04,0 3.96,-1.92 1.92,-1.92 3.56,-5.4 l 0.76,-3 q 0.36,-1.56 2,-1.56 1.32,0 1.32,1.04 0,0.12 -0.08,0.52 l -2.28,9.2 q -0.08,0.24 -0.08,0.44 0,0.64 0.88,0.64 z"
         style="font-style:normal;font-variant:normal;font-weight:normal;font-stretch:normal;font-family:Srisakdi;-inkscape-font-specification:Srisakdi;fill:#ffffff;fill-opacity:1;stroke:none;stroke-opacity:1"
         id="path4770"
         inkscape:connector-curvature="0" />
      <path
         d="m 480.1182,372.99698 q 2.52,1.08 4.8,2.92 -0.52,-0.36 -1.96,-0.76 -1.4,-0.36 -3.28,-0.64 -1.12,3.28 -3.56,5.64 -2.44,2.36 -6.96,2.36 -2.2,0 -3.76,-0.72 -1.52,-0.72 -2.64,-2.32 -0.44,-1.08 -0.44,-2.24 0,-1.68 1.24,-3 1.2,-1.32 3.44,-2.08 2.24,-0.72 5.16,-0.72 2.48,0 4.92,0.56 l 1.96,-7.92 q -2.96,4.16 -6.32,4.16 -1.68,0 -3,-1.04 -1.32,-1.08 -2.48,-3.08 -0.4,-2 -0.4,-3.64 0,-3.56 1.36,-6.12 1.36,-2.6 3.8,-3.96 2.48,-1.36 5.8,-1.36 2.96,0 5.24,1.2 2.28,1.16 3.48,3.2 -1.6,-0.84 -3.44,-1.28 -1.8,-0.48 -3.64,-0.48 -4.44,0 -6.84,2.52 -2.4,2.48 -2.4,7.12 0,1.48 0.24,3.12 0.64,0.6 1.16,0.88 0.52,0.28 1.28,0.28 2,0 3.92,-1.84 1.96,-1.84 3.6,-5.08 l 0.76,-3 q 0.36,-1.56 2,-1.56 1.32,0 1.32,1.04 0,0.12 -0.08,0.52 l -4.12,16.64 z m -11.48,6.88 q 3.32,0 5.16,-1.68 1.84,-1.64 2.68,-4.04 -1.6,-0.08 -2.4,-0.08 -4.12,0 -6.32,1.04 -2.16,1.04 -2.16,2.76 0,0.36 0.04,0.68 0.08,0.32 0.16,0.48 0.76,0.84 2.84,0.84 z"
         style="font-style:normal;font-variant:normal;font-weight:normal;font-stretch:normal;font-family:Srisakdi;-inkscape-font-specification:Srisakdi;fill:#ffffff;fill-opacity:1;stroke:none;stroke-opacity:1"
         id="path4772"
         inkscape:connector-curvature="0" />
      <path
         d="m 496.78383,344.87698 q -0.76,0 -1.28,-0.44 -0.48,-0.48 -0.48,-1.2 0,-1.04 0.88,-1.8 0.88,-0.8 1.92,-0.8 0.76,0 1.24,0.48 0.52,0.44 0.52,1.16 0,1.04 -0.88,1.84 -0.88,0.76 -1.92,0.76 z m -5.12,23.6 q -0.84,0 -1.36,-0.48 -0.52,-0.48 -0.52,-1.32 0,-0.36 0.12,-0.76 l 3.24,-13.12 q 0.04,-0.12 0.04,-0.32 0,-0.36 -0.24,-0.56 -0.2,-0.2 -0.56,-0.2 -1.4,0 -3.64,1.48 1.64,-1.84 3.28,-2.92 1.64,-1.08 2.92,-1.08 0.84,0 1.36,0.48 0.52,0.48 0.52,1.32 0,0.32 -0.12,0.76 l -3.28,13.12 q -0.08,0.24 -0.08,0.44 0,0.64 0.88,0.64 1.4,0 3.64,-1.48 -1.64,1.84 -3.28,2.92 -1.64,1.08 -2.92,1.08 z"
         style="font-style:normal;font-variant:normal;font-weight:normal;font-stretch:normal;font-family:Srisakdi;-inkscape-font-specification:Srisakdi;fill:#ffffff;fill-opacity:1;stroke:none;stroke-opacity:1"
         id="path4774"
         inkscape:connector-curvature="0" />
      <path
         d="m 502.2682,368.47698 q -1.36,0 -1.36,-1 0,-0.12 0.08,-0.52 l 3.56,-14.16 q 0.04,-0.12 0.04,-0.32 0,-0.36 -0.24,-0.56 -0.2,-0.2 -0.56,-0.2 -1.4,0 -3.64,1.48 1.64,-1.84 3.28,-2.92 1.64,-1.08 2.92,-1.08 0.84,0 1.36,0.48 0.52,0.48 0.52,1.32 0,0.32 -0.12,0.76 l -0.68,2.72 q 2.4,-2.52 4.48,-3.96 2.12,-1.48 3.32,-1.48 0.68,0 1.52,0.48 0.84,0.44 1.4,1.2 0.56,0.76 0.56,1.56 0,0.2 -0.08,0.52 l -3.04,12.08 q -0.08,0.16 -0.08,0.4 0,0.68 0.88,0.68 1.4,0 3.64,-1.48 -1.64,1.84 -3.28,2.92 -1.64,1.08 -2.92,1.08 -0.84,0 -1.36,-0.48 -0.52,-0.48 -0.52,-1.32 0,-0.36 0.12,-0.76 l 3.36,-13.44 q -1.88,0.24 -4.32,1.84 -2.44,1.56 -4.64,4 l -2.16,8.64 q -0.36,1.52 -2.04,1.52 z"
         style="font-style:normal;font-variant:normal;font-weight:normal;font-stretch:normal;font-family:Srisakdi;-inkscape-font-specification:Srisakdi;fill:#ffffff;fill-opacity:1;stroke:none;stroke-opacity:1"
         id="path4776"
         inkscape:connector-curvature="0" />
      <path
         d="m 530.13758,368.63698 q -2.36,0 -4.32,-1.32 -1.96,-1.32 -2.84,-3.36 -0.4,-1.36 -0.4,-3 0,-3.6 1.4,-6.28 1.4,-2.72 3.96,-4.16 2.6,-1.48 6.04,-1.48 2.08,0 3.8,0.88 1.76,0.84 2.64,2.32 0.48,1.52 0.48,3.6 0,2.76 -1.76,4.4 -1.76,1.64 -4.76,1.64 -2.48,0 -4.28,-1 -1.76,-1.04 -2.32,-2.76 0.84,0.6 2.4,0.96 1.56,0.32 3.4,0.32 1.88,0 3,-1.04 1.12,-1.08 1.12,-2.84 0,-1.24 -0.32,-2.4 -0.64,-0.64 -1.56,-1.04 -0.88,-0.4 -1.8,-0.4 -3.72,0 -5.92,2.76 -2.16,2.76 -2.16,7.48 0,1.32 0.2,2.6 1.72,1.48 4.72,1.48 2.44,0 4.68,-0.92 2.28,-0.92 3.68,-2.48 -1.72,2.76 -4.2,4.4 -2.44,1.64 -4.88,1.64 z"
         style="font-style:normal;font-variant:normal;font-weight:normal;font-stretch:normal;font-family:Srisakdi;-inkscape-font-specification:Srisakdi;fill:#ffffff;fill-opacity:1;stroke:none;stroke-opacity:1"
         id="path4778"
         inkscape:connector-curvature="0" />
    </g>
  </g>
</svg>
