<?xml version="1.0"?>
<svg xmlns="http://www.w3.org/2000/svg" id="Layer_1" data-name="Layer 1" viewBox="0 0 512 512" width="512" height="512"><title>Car Repair</title><path d="M445.971,76H446a6.788,6.788,0,0,0,6.273-9.886,62.606,62.606,0,0,0-56.563-34.829A63.688,63.688,0,0,0,338.459,68H173.541A63.651,63.651,0,0,0,116.3,31.324,62.75,62.75,0,0,0,59.776,66.2a6.692,6.692,0,0,0,.309,6.645A6.853,6.853,0,0,0,66.039,76H94.483l11.844,17.9-12.8,18.243L66.029,112h-.024a7.164,7.164,0,0,0-6.273,10.287A63.153,63.153,0,0,0,173.541,121H338.459a63.162,63.162,0,0,0,113.764,1.452,7.318,7.318,0,0,0-.308-6.972,7.16,7.16,0,0,0-5.954-3.48H417.517L405.673,94.365l12.8-18.376Z"/><path d="M82.5,252.444c-8.649-.016-20.044-.034-27.172-.034-9.6,0-17.478,4.28-19.6,10.651a56.416,56.416,0,0,0-1.67,6.211l38.975-.049Z"/><path d="M80,464.218A2.838,2.838,0,0,0,82.728,467h29.3A3.068,3.068,0,0,0,115,464.218V436H80Z"/><path d="M456.671,252.41c-7.111,0-18.513-.034-27.148-.064l9.2,16.954,39.223-.014a56.152,56.152,0,0,0-1.672-6.225C474.149,256.69,466.271,252.41,456.671,252.41Z"/><path d="M335.6,346.5c-2.45-7.2-11.273-13.5-18.881-13.5H194.775c-7.573,0-16.279,6.292-18.63,13.491L173.032,356H338.843Z"/><path d="M391.645,275h34.489l-32.1-59.146C380.409,191.426,368.081,181,352.851,181H160.771c-21.629,0-35.336,21.807-41.581,34.686-.063.129-.131.13-.2.257L85.589,275H298.355a46.988,46.988,0,0,1,93.29,0Z"/><path d="M312.5,275h65c-2.7-15-16.241-27.323-32.5-27.323S315.2,260,312.5,275Z"/><path d="M397,464.218A3.066,3.066,0,0,0,399.975,467h29.3A2.84,2.84,0,0,0,432,464.218V436H397Z"/><path d="M412.588,341.939a13,13,0,1,0,13,13A13.013,13.013,0,0,0,412.588,341.939Z"/><path d="M437.833,289.239c-.065,0-.128-.239-.193-.239H73.6a7.169,7.169,0,0,1-1.207.111c-15.843.815-25.323,15.96-25.5,30.649l11.269,89.08a6.864,6.864,0,0,1,.056.872A12.3,12.3,0,0,0,70.514,422H440.983a12.278,12.278,0,0,0,12.3-12.259,6.58,6.58,0,0,1,.061-.9L465.1,319.731C464.894,302.936,452.742,289.239,437.833,289.239Zm-281.1,71.314,6.107-18.545C167.079,329.016,181.108,319,194.775,319H316.722c13.631,0,27.746,9.948,32.136,22.854l6.387,18.7a7.2,7.2,0,0,1-.937,6.427A7.093,7.093,0,0,1,348.617,370H163.383a7.131,7.131,0,0,1-5.666-3.027A7.284,7.284,0,0,1,156.729,360.553ZM99.411,381.936a27,27,0,1,1,27-27A27.029,27.029,0,0,1,99.411,381.936ZM373.063,394H144.607a7,7,0,1,1,0-14H373.063a7,7,0,0,1,0,14Zm39.525-12.064a27,27,0,1,1,27-27A27.029,27.029,0,0,1,412.588,381.936Z"/><path d="M99.411,341.939a13,13,0,1,0,13,13A13.014,13.014,0,0,0,99.411,341.939Z"/></svg>
